<svg xmlns="http://www.w3.org/2000/svg" xmlns:xlink="http://www.w3.org/1999/xlink" width="30.344" height="30" viewBox="0 0 30.344 30">
  <metadata><?xpacket begin="﻿" id="W5M0MpCehiHzreSzNTczkc9d"?>
<x:xmpmeta xmlns:x="adobe:ns:meta/" x:xmptk="Adobe XMP Core 5.6-c138 79.159824, 2016/09/14-01:09:01        ">
   <rdf:RDF xmlns:rdf="http://www.w3.org/1999/02/22-rdf-syntax-ns#">
      <rdf:Description rdf:about=""/>
   </rdf:RDF>
</x:xmpmeta>
                                                                                                    
                                                                                                    
                                                                                                    
                                                                                                    
                                                                                                    
                                                                                                    
                                                                                                    
                                                                                                    
                                                                                                    
                                                                                                    
                                                                                                    
                                                                                                    
                                                                                                    
                                                                                                    
                                                                                                    
                                                                                                    
                                                                                                    
                                                                                                    
                                                                                                    
                                                                                                    
                           
<?xpacket end="w"?></metadata>
<defs>
    <style>
      .cls-1 {
        fill: #4463a6;
        fill-rule: evenodd;
        filter: url(#filter);
      }
    </style>
    <filter id="filter" x="963" y="660" width="30.344" height="30" filterUnits="userSpaceOnUse">
      <feFlood result="flood" flood-color="#9c9c9c"/>
      <feComposite result="composite" operator="in" in2="SourceGraphic"/>
      <feBlend result="blend" in2="SourceGraphic"/>
    </filter>
  </defs>
  <path id="FaceBook" class="cls-1" d="M978.171,660A15,15,0,1,1,963,675,15.086,15.086,0,0,1,978.171,660Zm-3.314,14.9h1.272v6.2h2.823v-6.2h1.994l0.542-2.3h-2.653a1.712,1.712,0,0,1,.186-1.315,1.55,1.55,0,0,1,1.033-.325,2.809,2.809,0,0,1,1.333.5l0.572-2.029a8.3,8.3,0,0,0-2.36-.519,4.278,4.278,0,0,0-2,.4,2.277,2.277,0,0,0-1.069,1.17,3.829,3.829,0,0,0-.327,1.814v0.3H974.9Z" transform="translate(-963 -660)"/>
</svg>
