<svg width="39" height="39" viewBox="0 0 39 39" xmlns="http://www.w3.org/2000/svg">
    <title>
        Group 11
    </title>
    <g fill-rule="evenodd" opacity=".3">
        <path d="M37.611 31.828L2.166 36.733V34.87c1.818-.296 3.164-1.84 3.164-3.76 0-1.919-1.346-3.464-3.164-3.76v-8.385l35.445-4.905v17.767zM22.024 1.273c6.297.098 15.117 4.188 15.547 11.512L3.54 17.495 22.024 1.273zM21.786 0a.635.635 0 0 0-.415.157L1.114 17.935c-.01.01-.012.021-.021.031a.546.546 0 0 0-.09.117c-.017.026-.036.05-.048.078-.017.04-.024.086-.033.129-.007.035-.02.066-.02.102 0 .007-.004.012-.004.022v9.523c0 .35.285.634.634.634a2.51 2.51 0 0 1 2.533 2.54 2.51 2.51 0 0 1-2.533 2.54.634.634 0 0 0-.634.634v3.176a.632.632 0 0 0 .72.629l36.713-5.081a.632.632 0 0 0 .546-.629V13.333c0-8.7-9.925-13.334-17.09-13.334z"/>
        <path d="M32.548 17.778a1.904 1.904 0 0 1 0 3.81 1.904 1.904 0 0 1 0-3.81m0 5.078a3.173 3.173 0 0 0 3.164-3.174c0-1.75-1.42-3.173-3.164-3.173a3.173 3.173 0 0 0-3.164 3.173 3.172 3.172 0 0 0 3.164 3.174m-9.495.001c.698 0 1.265-.569 1.265-1.269 0-.702-.567-1.271-1.265-1.271s-1.265.569-1.265 1.271c0 .7.567 1.27 1.265 1.27m6.33 3.808a.634.634 0 1 1-.634.636c0-.35.285-.636.634-.636m0 2.54a1.904 1.904 0 0 0 0-3.809 1.904 1.904 0 0 0 0 3.81M17.99 26.032a2.54 2.54 0 0 1 0 5.078 2.538 2.538 0 0 1 0-5.078m0 6.35a3.809 3.809 0 0 0 3.797-3.81 3.807 3.807 0 0 0-3.798-3.81 3.807 3.807 0 0 0-3.798 3.81 3.81 3.81 0 0 0 3.798 3.81m-7.595-11.43a1.27 1.27 0 0 1 0 2.54 1.269 1.269 0 0 1-1.266-1.27c0-.7.568-1.27 1.266-1.27m0 3.81a2.54 2.54 0 0 0 0-5.079 2.538 2.538 0 0 0 0 5.079"/>
    </g>
</svg>
