<svg width="43" height="37" viewBox="0 0 43 37" xmlns="http://www.w3.org/2000/svg">
    <title>
        Group 10
    </title>
    <g fill-rule="evenodd" opacity=".3">
        <path d="M6.409 26.876h8.218v-5.495H6.409v5.495zm8.903-6.866H5.725a.685.685 0 0 0-.683.685v6.87c0 .378.306.685.683.685h9.587a.685.685 0 0 0 .684-.686v-6.869a.685.685 0 0 0-.684-.685zm2.054-9.617h8.217V4.898h-8.217v5.495zm8.9-6.87h-9.584a.686.686 0 0 0-.686.689v6.869c0 .379.306.686.686.686h9.585c.38 0 .686-.307.686-.686v-6.87a.686.686 0 0 0-.686-.687z"/>
        <path d="M40.647 35.118H24.214v-2.747c0-.757.612-1.374 1.37-1.374h13.693c.755 0 1.37.617 1.37 1.374v2.747zm-15.064-15.11c0-.756.613-1.373 1.37-1.373h10.954c.755 0 1.37.617 1.37 1.374v9.614H25.583V20.01zm-7.227-1.373a2.732 2.732 0 0 0-2.36-1.374H13.26v-1.374c0-.757.613-1.373 1.368-1.373h13.695c.755 0 1.37.616 1.37 1.373v1.374h-2.74a2.735 2.735 0 0 0-2.359 1.374h-6.237zM3.672 29.623V20.01c0-.757.615-1.374 1.37-1.374h10.954c.757 0 1.37.617 1.37 1.374v9.614H3.672zm15.063 5.495H2.303v-2.747c0-.757.614-1.374 1.37-1.374h13.693c.757 0 1.37.617 1.37 1.374v2.747zM14.627 3.525c0-.757.614-1.373 1.37-1.373h10.956c.755 0 1.37.616 1.37 1.373v9.615H14.626V3.525zm26.02 26.481V20.01a2.747 2.747 0 0 0-2.74-2.748h-6.845v-1.374a2.74 2.74 0 0 0-1.37-2.364V3.525a2.746 2.746 0 0 0-2.74-2.747H15.997a2.744 2.744 0 0 0-2.737 2.747v9.998a2.734 2.734 0 0 0-1.37 2.364v1.374H5.043a2.747 2.747 0 0 0-2.74 2.748v9.997a2.74 2.74 0 0 0-1.37 2.365v3.433c0 .381.307.688.687.688h17.8a.685.685 0 0 0 .684-.688v-3.433a2.74 2.74 0 0 0-1.37-2.365V20.01h5.479v9.997a2.74 2.74 0 0 0-1.37 2.365v3.433c0 .381.306.688.684.688H41.33c.38 0 .686-.307.686-.688v-3.433a2.74 2.74 0 0 0-1.37-2.365z"/>
        <path d="M28.32 26.876h8.218v-5.495H28.32v5.495zm8.904-6.866h-9.587a.685.685 0 0 0-.684.685v6.87c0 .378.306.685.684.685h9.587a.685.685 0 0 0 .683-.686v-6.869a.685.685 0 0 0-.683-.685z"/>
    </g>
</svg>
