<svg width="61" height="59" viewBox="8 8 45 38" xmlns="http://www.w3.org/2000/svg" xmlns:xlink="http://www.w3.org/1999/xlink">
    <title>
        Group
    </title>
    <filter x="-37.2%" y="-35.9%" width="174.4%" height="182.1%" filterUnits="objectBoundingBox" id="blur">
        <feOffset dx="0" dy="2" in="SourceAlpha" result="shadowOffsetOuter1"></feOffset>
        <feGaussianBlur stdDeviation="5" in="shadowOffsetOuter1" result="shadowBlurOuter1"></feGaussianBlur>
        <feColorMatrix values="0 0 0 0 0.550505051   0 0 0 0 0.732065756   0 0 0 0 1  0 0 0 1 0" type="matrix" in="shadowBlurOuter1"></feColorMatrix>
    </filter>
    <defs>
        <path d="M34.4 37.556h5.733v-15.89H34.4v15.89zm-20.067 0V5.778h14.334v31.778H14.333zm-11.466 0H8.6v-15.89H2.867v15.89zM18.633 4.333h5.734V1.444h-5.734v2.89zm23.65 33.223h-.716V20.944c0-.4-.32-.722-.717-.722h-5.017v-2.166c0-.4-.32-.723-.716-.723a.718.718 0 0 0-.717.723v2.166h-.717a.718.718 0 0 0-.716.722v16.612H30.1v-32.5c0-.4-.32-.723-.717-.723H25.8V.723c0-.4-.32-.723-.717-.723h-7.166a.718.718 0 0 0-.717.722v3.611h-3.583a.718.718 0 0 0-.717.723v32.5h-2.867V20.944c0-.4-.32-.722-.716-.722H8.6v-2.166c0-.4-.32-.723-.717-.723a.718.718 0 0 0-.716.723v2.166H2.15a.718.718 0 0 0-.717.722v16.612H.717a.718.718 0 0 0-.717.722c0 .4.32.722.717.722h41.566a.718.718 0 0 0 .717-.722c0-.4-.32-.722-.717-.722z" id="a"/>
        <path d="M26.313 19h-9.625c-.38 0-.688.223-.688.5s.307.5.688.5h9.625c.38 0 .687-.223.687-.5s-.307-.5-.688-.5" id="b"/>
        <path d="M26.313 23h-9.625c-.38 0-.688.223-.688.5s.307.5.688.5h9.625c.38 0 .687-.223.687-.5s-.307-.5-.688-.5" id="c"/>
        <path d="M26.313 26h-9.625c-.38 0-.688.223-.688.5s.307.5.688.5h9.625c.38 0 .687-.223.687-.5s-.307-.5-.688-.5" id="d"/>
        <path d="M26.313 34h-9.625c-.38 0-.688.223-.688.5s.307.5.688.5h9.625c.38 0 .687-.223.687-.5s-.307-.5-.688-.5" id="e"/>
        <path d="M26.313 30h-9.625c-.38 0-.688.223-.688.5s.307.5.688.5h9.625c.38 0 .687-.223.687-.5s-.307-.5-.688-.5" id="f"/>
    </defs>
    <g fill-rule="evenodd">
        <g transform="translate(9 8)">
            <use filter="url(#a)" xlink:href="#a"/>
            <use xlink:href="#a"/>
        </g>
        <g transform="translate(9 8)">
            <use filter="url(#c)" xlink:href="#b"/>
            <use xlink:href="#b"/>
        </g>
        <g transform="translate(9 8)">
            <use filter="url(#e)" xlink:href="#c"/>
            <use xlink:href="#c"/>
        </g>
        <g transform="translate(9 8)">
            <use filter="url(#g)" xlink:href="#d"/>
            <use xlink:href="#d"/>
        </g>
        <g transform="translate(9 8)">
            <use filter="url(#i)" xlink:href="#e"/>
            <use xlink:href="#e"/>
        </g>
        <g transform="translate(9 8)">
            <use filter="url(#k)" xlink:href="#f"/>
            <use xlink:href="#f"/>
        </g>
    </g>
</svg>
