<svg width="41" height="32" viewBox="0 0 41 32" xmlns="http://www.w3.org/2000/svg">
    <title>
        Group 12
    </title>
    <g fill-rule="evenodd" opacity=".3">
        <path d="M32.352 20.289h6.793v-3.021c-1.205 0-2.407-.031-3.605.019a1.498 1.498 0 0 0-.926.428c-.764.805-1.472 1.665-2.262 2.574zm-23.245.01c-.731-.865-1.382-1.665-2.063-2.436-.373-.42-.876-.614-1.438-.622-.667-.011-1.334-.007-2.004-.007-.427-.002-.857 0-1.265 0V20.3h6.77zM6.51 9.903a128.276 128.276 0 0 1 28.448 0c-1.049-2.51-2.224-4.921-4.03-6.954-.261-.296-.681-.496-1.066-.615-.494-.154-1.02-.219-1.54-.264-3.749-.343-7.508-.314-11.266-.217-1.521.038-3.038.196-4.56.29-1.065.07-1.937.5-2.501 1.427a156.457 156.457 0 0 0-2.628 4.414c-.342.6-.57 1.265-.857 1.92zm-4.114 11.95l.375 1.886c.067.32.243.438.584.433 1.263-.021 2.526-.01 3.789-.007 1 .005 2.039-.152 2.988.072.95.223 1.8.85 2.709 1.269.263.121.576.2.866.2 3.831.014 7.66.01 11.49.01 1.017-.003 2.07.159 3.034-.067.95-.222 1.797-.855 2.704-1.279.251-.119.548-.195.826-.198 2.117-.014 4.237-.012 6.354-.004.252 0 .477-.017.541-.305.145-.645.276-1.293.423-2.005h-.563c-2.48-.002-4.96-.005-7.443-.002-.418 0-.824-.005-1.033-.465-.214-.464.071-.769.335-1.085.819-.981 1.657-1.948 2.447-2.955.911-1.162 2.065-1.733 3.544-1.671.833.033 1.67.004 2.518.004-.012-.093-.01-.135-.023-.176a5.921 5.921 0 0 0-.162-.402c-.534-1.181-1.339-2.148-2.364-2.917a3.393 3.393 0 0 0-1.27-.6c-2.561-.552-5.172-.726-7.78-.767a357.85 357.85 0 0 0-13.184.005c-2.286.05-4.565.36-6.843.593-.568.06-1.199.148-1.662.445a7.438 7.438 0 0 0-2.927 3.481c-.04.098-.057.205-.092.343 1.004 0 1.96-.005 2.917 0 1.07.005 2.008.371 2.713 1.176a110.081 110.081 0 0 1 3.095 3.72c.148.185.197.578.102.792-.094.212-.42.331-.657.464-.078.046-.2.012-.302.012H2.396zM20.733.158c2.668.14 5.334.267 7.997.426.546.034 1.108.112 1.619.298.52.186 1.056.445 1.452.814 1.273 1.179 2.177 2.653 2.944 4.188.724 1.45 1.307 2.972 1.967 4.455.083.186.238.357.4.483 1.39 1.084 2.525 2.372 3.137 4.046.228.619.41 1.29.432 1.945.074 2.21.107 4.426-.358 6.607a5.77 5.77 0 0 1-.532 1.417c-.311.604-.84.885-1.536.88a614.699 614.699 0 0 0-6.223.005c-.235.003-.47.105-.703.162a.12.12 0 0 0-.04.017c-1.733 1.155-3.632 1.43-5.697 1.374-4.06-.112-8.125-.026-12.187-.04-.346-.003-.695-.144-1.034-.244a1.934 1.934 0 0 1-.506-.252c-1.332-.89-2.791-1.145-4.377-1.045-1.374.088-2.756-.005-4.135.03-.907.025-1.543-.373-1.828-1.187-.285-.815-.529-1.674-.595-2.531a54.35 54.35 0 0 1-.157-5.015c.03-1.942.947-3.535 2.231-4.93a7.76 7.76 0 0 1 1.087-1.005c.43-.312.667-.698.843-1.2.871-2.5 2.134-4.793 3.646-6.965C9.608 1.411 10.963.658 12.736.572 15.4.444 18.065.3 20.733.158zm10.779 27.369v2.014h6.124v-2.27c.539-.025 1.023-.051 1.538-.075 0 .86.05 1.716-.012 2.566-.06.812-.729 1.334-1.61 1.34-1.333.013-2.667.006-4.001.006-.653 0-1.306.01-1.959-.003-1.008-.021-1.55-.65-1.65-1.645-.09-.9.17-1.462 1.055-1.702.147-.04.284-.127.515-.231m-29.19-.33l1.503.071v2.277h6.14V27.51c.527.264.978.484 1.42.717.061.033.116.136.116.207.002.479.036.964-.03 1.436-.089.64-.625 1.116-1.268 1.204-.228.034-.463.031-.693.031-1.828.003-3.656.005-5.484 0-1.139-.004-1.742-.616-1.742-1.76-.002-.682.003-1.366.005-2.051 0-.027.019-.053.033-.098"/>
        <path d="M13.987 18.772c.043.098.05.143.076.174.76.917 1.515 1.836 2.291 2.74.093.108.3.163.453.163 2.623.011 5.246.011 7.871-.003a.75.75 0 0 0 .504-.238c.712-.824 1.4-1.667 2.096-2.505.073-.09.13-.195.22-.33h-13.51zm6.746-1.54c2.191 0 4.385.01 6.575-.007.734-.005 1.315.216 1.633.912.314.683.1 1.26-.363 1.802-.84.986-1.664 1.983-2.478 2.986-.259.319-.548.469-.968.466-2.932-.011-5.86-.01-8.792.003-.399.002-.686-.122-.938-.434a198.11 198.11 0 0 0-2.561-3.088c-.442-.523-.605-1.09-.311-1.733.3-.657.836-.914 1.543-.912 2.222.01 4.441.005 6.66.005z"/>
    </g>
</svg>
