<?xml version="1.0" encoding="UTF-8"?>
<svg width="29px" height="44px" viewBox="0 0 29 44" version="1.1" xmlns="http://www.w3.org/2000/svg" xmlns:xlink="http://www.w3.org/1999/xlink">
    <!-- Generator: Sketch 45.2 (43514) - http://www.bohemiancoding.com/sketch -->
    <title>Group 8 Copy 2</title>
    <desc>Created with Sketch.</desc>
    <defs></defs>
    <g id="Page-1" stroke="none" stroke-width="1" fill="none" fill-rule="evenodd" opacity="0.7">
        <g id="2_1_Mobile-Copy" transform="translate(-261.000000, -599.000000)">
            <g id="Group-8-Copy-2" transform="translate(261.000000, 599.000000)">
                <path d="M0.263666783,42.9099001 C13.0575034,36.481757 25.2768546,24.6906601 24.8969853,3.11594203" id="Path-6" stroke="#FFFFFF" stroke-dasharray="4"></path>
                <path id="edge" d="M25.1021101,2.57978229 C24.3490151,1.65126638 23.6152017,0.749314311 22.8848491,-0.155318513 C22.6569306,-0.437650713 22.6387614,-0.674775642 22.8097002,-0.936027362 C23.0692603,-1.33277904 23.5431429,-1.35641842 23.8715481,-0.964784548 C24.4221863,-0.308121525 24.9552732,0.362798239 25.4954054,1.02774723 C25.7913039,1.3919643 26.0890564,1.75459728 26.3816176,2.1212514 C26.6411777,2.44659753 26.6466161,2.70967703 26.3877976,3.03039277 C25.5683294,4.04664246 24.7458948,5.06057696 23.920123,6.07195256 C23.6154489,6.444943 23.241188,6.50830629 22.9324351,6.25460943 C22.6338174,6.00932038 22.6205922,5.64546887 22.9122883,5.28295774 C23.6342361,4.38587977 24.3617459,3.49306664 25.1021101,2.57978229" fill="#777" transform="translate(24.637388, 2.580480) rotate(-94.000000) translate(-24.637388, -2.580480) "></path>
            </g>
        </g>
    </g>
</svg>