<svg width="44" height="43" viewBox="0 0 44 43" xmlns="http://www.w3.org/2000/svg">
    <title>
        Group 13
    </title>
    <g fill-rule="evenodd" opacity=".3">
        <path d="M41.573.907H3.12A2.143 2.143 0 0 0 .984 3.05v25.714c0 1.181.959 2.143 2.136 2.143h12.818a.712.712 0 0 0 .712-.714.712.712 0 0 0-.712-.714H3.12a.714.714 0 0 1-.712-.715V3.05c0-.395.32-.714.712-.714h38.453c.392 0 .712.319.712.714v25.714c0 .396-.32.715-.712.715h-2.848a.712.712 0 0 0-.712.714c0 .395.318.714.712.714h2.848a2.143 2.143 0 0 0 2.137-2.143V3.05A2.143 2.143 0 0 0 41.573.907"/>
        <path d="M38.725 26.621a.712.712 0 0 0-.712.715c0 .395.318.714.712.714h2.136V3.764H3.832V28.05h12.106a.712.712 0 0 0 .712-.714.712.712 0 0 0-.712-.715H5.256V5.193h34.181V26.62h-.712z"/>
        <path d="M22.346 40.907h9.97V23.764h-9.97v17.143zm-1.424 1.429H33.74v-20H20.922v20z"/>
        <path d="M24.483 26.621a.712.712 0 0 0-.712.715.712.712 0 1 0 1.424 0 .712.712 0 0 0-.712-.715m2.848 0a.712.712 0 0 0-.712.715.712.712 0 1 0 1.424 0 .712.712 0 0 0-.712-.715m-2.848 4.286a.712.712 0 0 0-.712.714.712.712 0 1 0 1.424 0 .712.712 0 0 0-.712-.714m2.848 0a.712.712 0 0 0-.712.714.712.712 0 1 0 1.424 0 .712.712 0 0 0-.712-.714m-2.848 4.286a.712.712 0 0 0-.712.714.712.712 0 1 0 1.424 0 .712.712 0 0 0-.712-.714m2.848 0a.712.712 0 0 0-.712.714.712.712 0 1 0 1.424 0 .712.712 0 0 0-.712-.714m2.849-8.572a.712.712 0 0 0-.712.715.712.712 0 1 0 1.424 0 .712.712 0 0 0-.712-.715m0 4.286a.712.712 0 0 0-.712.714.712.712 0 1 0 1.424 0 .712.712 0 0 0-.712-.714m0 4.286a.712.712 0 0 0-.712.714.712.712 0 1 0 1.424 0 .712.712 0 0 0-.712-.714m1.535-18.653a.707.707 0 0 0 .589-.314.712.712 0 0 0-.19-.99c-2.863-1.943-6.703-1.943-9.566 0a.714.714 0 0 0 .798 1.18c2.385-1.616 5.587-1.616 7.97 0a.703.703 0 0 0 .4.124m-11.333-4.85a.715.715 0 0 0-.173.995.71.71 0 0 0 .992.174 10.658 10.658 0 0 1 12.26 0 .711.711 0 0 0 .992-.174.715.715 0 0 0-.173-.995 12.078 12.078 0 0 0-13.898 0m4.363 7.1a.714.714 0 0 0 .74 1.219 3.527 3.527 0 0 1 3.692 0 .713.713 0 0 0 .738-1.219 4.93 4.93 0 0 0-5.17 0"/>
    </g>
</svg>
