<?xml version="1.0" encoding="UTF-8"?>
<svg width="165px" height="30px" viewBox="0 0 165 30" version="1.1" xmlns="http://www.w3.org/2000/svg" xmlns:xlink="http://www.w3.org/1999/xlink">
    <!-- Generator: Sketch 45.2 (43514) - http://www.bohemiancoding.com/sketch -->
    <title>Fill 3</title>
    <desc>Created with Sketch.</desc>
    <defs></defs>
    <g id="Page-1" stroke="none" stroke-width="1" fill="none" fill-rule="evenodd">
        <g id="1_2" transform="translate(-101.000000, -50.000000)" fill="#FFFFFF">
            <g id="Page-1" transform="translate(101.000000, 50.000000)">
                <path d="M138.673835,20.1603219 C138.384446,23.6345969 135.654054,25.9729404 132.330779,25.6813673 C128.71237,25.5405537 126.450015,22.4929073 126.767612,19.0243905 C127.100357,15.3920274 129.768588,13.3672428 132.990524,13.5237605 C137.05033,13.721109 138.939196,16.9770967 138.673835,20.1603219 M137.584186,10.7268566 C135.698455,9.79089106 133.728101,9.51973324 131.646484,9.6579295 C125.861312,10.0416335 121.582635,15.4600786 122.599676,21.1690499 C123.524259,26.3576914 127.450863,29.6299067 132.732999,29.6440404 C133.36088,29.5807004 133.993461,29.5477218 134.615596,29.4498328 C139.043668,28.7546637 142.220681,25.5478822 142.863188,20.9224952 C143.438832,16.7787013 141.466911,12.6542757 137.584186,10.7268566 M33.4390771,25.7164398 C30.0066288,25.7174867 27.4674216,23.1299711 27.4606308,19.6253349 C27.4538401,16.1196517 29.9700634,13.5263779 33.4093024,13.4949696 C36.8589887,13.4635614 39.4264035,16.0845791 39.4201352,19.63214 C39.4143892,23.1399171 36.8819726,25.7159163 33.4390771,25.7164398 M30.9662099,9.8526606 C25.7854122,11.0236645 22.4835547,15.899794 23.3276936,21.1329305 C24.1540721,26.2577085 28.1323899,29.5990219 33.4218391,29.57913 C33.6887667,29.57913 33.9572613,29.5958811 34.2231442,29.5765127 C37.9752787,29.2995967 40.9005123,27.6056455 42.5851335,24.213032 C44.2984846,20.7607428 44.1334179,17.2519188 42.0006091,13.9995954 C39.6828838,10.4645978 35.2824967,8.87691124 30.9662099,9.8526606 M12.9655758,24.9113419 C9.80684579,26.8068292 4.87208111,25.4458055 4.32882343,20.44509 C4.30218291,20.2032465 4.28964619,19.9598326 4.27867657,19.8226833 C4.22121662,16.828431 5.80188752,14.4681017 8.2700534,13.7509468 C12.0864386,12.6427594 15.6567907,15.2716292 15.7424583,19.2500064 C15.7936499,21.6202817 15.0853254,23.6398316 12.9655758,24.9113419 M17.9525768,0.52755376 L15.4650834,0.52755376 L15.4650834,12.0036017 C12.8172246,9.05227392 8.27266522,9.1025271 5.38922063,10.5373603 C2.11818258,12.1653541 0.480051736,14.9067701 0.0710413885,18.4600891 C-0.379758011,22.3719856 1.29911716,26.9581123 5.68435581,28.8091046 C8.67018358,30.0690986 11.6445194,30.0889905 14.3618525,27.9867322 C14.7144476,27.714004 15.0398798,27.4051562 15.4953805,27.0115063 C15.4953805,27.0115063 15.7116389,29.0713634 17.1152286,29.0713634 L19.5959312,29.0713634 L19.5959312,2.83187173 C19.5959312,1.58705843 19.1895327,0.52755376 17.9525768,0.52755376 M116.817639,0.58147124 C115.16906,0.577283475 113.911732,1.8304723 113.901807,3.48673356 C113.892405,5.13357234 115.159136,6.39356629 116.817639,6.38780811 C118.49338,6.38204994 119.728246,5.14979994 119.723022,3.48830397 C119.717799,1.82994883 118.474574,0.585659006 116.817639,0.58147124 M85.2585464,0.579377358 C83.5927303,0.58147124 82.3871162,1.81058042 82.3886832,3.50505503 C82.3907727,5.19377147 83.616759,6.41031735 85.2940671,6.38833158 C86.9473465,6.36686929 88.2334045,5.07965486 88.2114653,3.46893556 C88.1890037,1.84198866 86.8961549,0.576760004 85.2585464,0.579377358 M117.104938,10.1636022 L114.804451,10.1636022 L114.804451,29.1132411 L118.869481,29.1132411 L118.869481,12.6799258 C118.869481,11.1529618 118.671505,10.1636022 117.104938,10.1636022 M164.187096,16.791788 C164.177694,15.3789407 163.793234,14.0472312 162.991929,12.8673283 C161.383051,10.4975765 159.04652,9.5705099 156.286876,9.60296508 C154.1525,9.62809167 152.021781,10.3787486 150.624982,12.0815988 L150.628638,10.1301001 L147.347153,10.1301001 C146.82479,10.1301001 146.570921,10.2698667 146.570921,10.8912264 L146.570921,29.07084 L150.69968,29.07084 L150.69968,28.2086838 C150.69968,24.9191939 150.665726,21.6297041 150.713261,18.3407378 C150.742513,16.2955378 151.635754,14.6989522 153.601929,13.9331146 C155.708097,13.1123126 158.534604,13.4504746 159.528662,15.8778082 C159.860885,16.6881408 160.018116,17.6209656 160.033787,18.5019668 C160.091247,21.76633 160.056771,25.0317401 160.056771,28.2971503 L160.056771,29.0917788 L162.876487,29.0917788 C163.660032,29.0917788 164.197021,28.7112156 164.197021,28.0348915 C164.197021,27.0973555 164.213214,20.7633602 164.187096,16.791788 M85.5542039,10.1636022 L83.254239,10.1636022 L83.254239,29.1132411 L87.319269,29.1132411 L87.319269,12.6799258 C87.319269,11.1529618 87.1212934,10.1636022 85.5542039,10.1636022 M108.795185,12.8673283 C107.186307,10.4975765 104.849776,9.5705099 102.090132,9.60296508 C99.955756,9.62809167 97.8255591,10.3787486 96.4282377,12.0815988 L96.4318942,10.1301001 L93.1504089,10.1301001 C92.6280457,10.1301001 92.3741772,10.2698667 92.3741772,10.8912264 L92.3741772,29.07084 L96.5029356,29.07084 L96.5029356,28.2086838 C96.5029356,24.9191939 96.468982,21.6297041 96.516517,18.3407378 C96.5462917,16.2955378 97.4390103,14.6989522 99.4051852,13.9331146 C101.511353,13.1123126 104.338383,13.4504746 105.331918,15.8778082 C105.664141,16.6881408 105.821372,17.6209656 105.837043,18.5019668 C105.894503,21.76633 105.860027,25.0317401 105.860027,28.2971503 L105.860027,29.0917788 L108.679743,29.0917788 C109.463288,29.0917788 110.000277,28.7112156 110.000277,28.0348915 C110.000277,27.0973555 110.01647,20.7633602 109.990352,16.791788 C109.98095,15.3789407 109.59649,14.0472312 108.795185,12.8673283 M77.2998214,12.8673283 C75.6909429,10.4975765 73.3544126,9.5705099 70.594768,9.60296508 C68.4603922,9.62809167 65.6297063,10.1636022 63.7648698,12.927004 C63.7648698,12.927004 63.7653922,12.9332856 63.7659146,12.9353795 C63.750766,12.9128702 63.7382293,12.8893141 63.7230808,12.8673283 C62.1142023,10.4975765 59.7776719,9.5705099 57.0180274,9.60296508 C54.8836515,9.62809167 52.7529322,10.3787486 51.3561332,12.0815988 L51.3597897,10.1295766 L48.0783044,10.1295766 C47.5554189,10.1295766 47.3020728,10.2698667 47.3020728,10.8912264 L47.3020728,29.07084 L51.4303087,29.07084 L51.4303087,28.2086838 C51.4308311,24.9191939 51.3968775,21.6297041 51.4444126,18.3407378 C51.4736649,16.2955378 52.3669059,14.6989522 54.3325584,13.9331146 C56.4387266,13.1123126 59.265756,13.4504746 60.2598131,15.8778082 C60.5915137,16.6881408 60.7492674,17.6209656 60.7644159,18.5019668 C60.8223982,21.76633 60.7879222,25.0317401 60.7879222,28.2971503 L60.7879222,29.0917788 L63.6076385,29.0917788 C64.3906609,29.0917788 64.9281726,28.7112156 64.9281726,28.0348915 C64.9281726,27.2355517 64.9396646,22.5127992 64.9271278,18.6762825 C64.9292173,18.6092783 64.9318291,18.5412271 64.9328738,18.4600891 C64.9626485,16.4143657 65.9436465,14.6989522 67.9092991,13.9331146 C70.0154673,13.1123126 72.8424967,13.4504746 73.8365537,15.8778082 C74.1682543,16.6881408 74.326008,17.6209656 74.3411565,18.5019668 C74.3991389,21.76633 74.3646629,25.0317401 74.3646629,28.2971503 L74.3646629,29.0917788 L77.1843792,29.0917788 C77.9674015,29.0917788 78.5049132,28.7112156 78.5049132,28.0348915 C78.5049132,27.0973555 78.5205841,20.7633602 78.4949883,16.791788 C78.4855858,15.3789407 78.1011265,14.0472312 77.2998214,12.8673283" id="Fill-3"></path>
            </g>
        </g>
    </g>
</svg>